<svg xmlns="http://www.w3.org/2000/svg" width="139" height="150" viewBox="0 0 139 150">
    <g fill="#79B679" fill-rule="nonzero">
        <path d="M136.804 119.995c1.213 0 2.196-.98 2.196-2.19V98.333c0-4.155-3.39-7.534-7.556-7.534h-10.891v-60.33c0-7.427-6.06-13.469-13.507-13.469h-9.033c-7.449 0-13.508 6.042-13.508 13.47v24.782H83.09a3.952 3.952 0 0 0-3.953 3.942v23.94a3.952 3.952 0 0 0 3.953 3.941h1.415v27.975c0 5.012-4.089 9.09-9.115 9.09h-8.16v-.585a3.952 3.952 0 0 0-3.953-3.941H56.41v-18.42c0-.24.114-.462.306-.593 1.49-1.017 3.719-2.862 5.875-5.877a2.186 2.186 0 0 0-.513-3.054 2.2 2.2 0 0 0-3.063.511c-1.782 2.492-3.583 3.989-4.78 4.806a5.089 5.089 0 0 0-2.217 4.207v18.42h-4.56v-.868c0-2.817-2.3-5.11-5.125-5.11H27.124c-2.825 0-5.124 2.293-5.124 5.11v15.167c0 2.817 2.299 5.11 5.124 5.11h15.209c2.825 0 5.124-2.293 5.124-5.11v-.868h4.56v14.765c0 1.21.983 2.19 2.197 2.19 1.213 0 2.196-.98 2.196-2.19v-14.765h6.867a3.952 3.952 0 0 0 3.953-3.942v-.584h8.16c7.448 0 13.507-6.042 13.507-13.469V87.076h1.415a3.952 3.952 0 0 0 3.953-3.942v-23.94a3.952 3.952 0 0 0-3.953-3.942h-1.415V30.47c0-5.013 4.09-9.09 9.116-9.09h9.033c5.026 0 9.115 4.078 9.115 9.09v60.329h-3.221v-7.307c0-1.21-.983-2.19-2.196-2.19s-2.196.98-2.196 2.19v7.307h-3.279c-4.166 0-7.555 3.38-7.555 7.534v41.784c0 4.155 3.39 7.535 7.555 7.535h26.175c4.167 0 7.556-3.38 7.556-7.535v-12.232c0-1.21-.983-2.19-2.196-2.19s-2.196.98-2.196 2.19v12.232c0 1.74-1.42 3.155-3.164 3.155H105.27a3.162 3.162 0 0 1-3.163-3.155V110.57h32.502v7.236c0 1.21.983 2.19 2.196 2.19zm-93.739 13.918c0 .402-.328.73-.732.73H27.124a.732.732 0 0 1-.732-.73v-15.167c0-.402.328-.73.732-.73h15.209c.404 0 .732.328.732.73v15.167zm19.773-5.248h-15.38v-4.671h15.38v4.671zm20.692-45.97v-13.01h6.343v13.01H83.53zm6.343-17.39H83.53v-5.673h6.343v5.673zm12.233 40.884v-7.856a3.162 3.162 0 0 1 3.163-3.155h3.279v5.026c0 1.21.983 2.19 2.196 2.19s2.196-.98 2.196-2.19v-5.026h3.22v5.026c0 1.21.984 2.19 2.197 2.19s2.196-.98 2.196-2.19v-5.026h10.891a3.163 3.163 0 0 1 3.164 3.155v7.856h-32.502z"/>
        <path d="M26.39 10.936c.887.854 1.375 2.001 1.376 3.23v35.526c0 1.21.982 2.19 2.193 2.19 1.212 0 2.194-.98 2.194-2.19V8.872c0-1.23.489-2.377 1.375-3.232a4.492 4.492 0 0 1 3.287-1.256c2.39.084 4.333 2.169 4.333 4.648v40.66c0 1.21.982 2.19 2.194 2.19s2.194-.98 2.194-2.19V17.44v-.005c0-1.23.488-2.378 1.374-3.232a4.469 4.469 0 0 1 3.288-1.257c2.39.084 4.333 2.17 4.333 4.648v20.43c-3.676 1.774-6.127 5.562-6.127 9.721v12.452c-8.414 1.079-14.938 8.276-14.938 16.967v5.851c0 1.21.982 2.191 2.194 2.191s2.194-.98 2.194-2.19v-5.852c0-7.017 5.716-12.725 12.743-12.725 1.212 0 2.194-.981 2.194-2.19V47.743c0-2.799 1.869-5.315 4.546-6.126l.019-.004a6.438 6.438 0 0 1 2.231-.26c3.379.2 6.025 3.083 6.025 6.565v23.309c0 .333-.018.679-.055 1.028a2.372 2.372 0 0 0-.01.129c-.18 3.925-.764 7.558-1.733 10.797A2.19 2.19 0 0 0 65.917 86c.944 0 1.817-.614 2.101-1.564 1.066-3.564 1.708-7.53 1.91-11.787.047-.479.072-.956.072-1.421v-23.31c0-5.797-4.46-10.602-10.154-10.937-.31-.018-.619-.023-.928-.016V17.593c0-4.811-3.842-8.86-8.566-9.026a8.831 8.831 0 0 0-4.816 1.21v-.745c0-4.812-3.844-8.86-8.567-9.027a8.848 8.848 0 0 0-6.49 2.484 8.804 8.804 0 0 0-2.443 4.19 8.825 8.825 0 0 0-5.093-1.377c-4.72.17-8.56 4.219-8.56 9.027v8.826a8.82 8.82 0 0 0-4.823-1.21C4.84 22.113 1 26.162 1 30.971v18.41c0 1.21.982 2.19 2.194 2.19s2.194-.98 2.194-2.19v-18.41c0-2.478 1.942-4.563 4.33-4.649a4.472 4.472 0 0 1 3.29 1.256c.886.854 1.374 2 1.375 3.23v19.613c0 1.21.982 2.19 2.194 2.19s2.194-.98 2.194-2.19V14.33c0-2.478 1.942-4.563 4.33-4.649a4.479 4.479 0 0 1 3.289 1.256zM14.806 97.118c-3.15-2.177-10.477-9.15-10.477-26.823v-10.11A2.174 2.174 0 0 0 2.165 58 2.174 2.174 0 0 0 0 60.184v10.111c0 8.428 1.552 15.622 4.613 21.38 2.565 4.825 5.628 7.583 7.745 9.047a.75.75 0 0 1 .313.622v46.472c0 1.206.969 2.184 2.164 2.184A2.174 2.174 0 0 0 17 147.816v-46.472c0-1.695-.82-3.275-2.194-4.226zM118.5 116a2.805 2.805 0 0 0-2.43 1.414c-3.365 5.895-5.07 9.954-5.07 12.064 0 4.148 3.365 7.522 7.5 7.522 4.136 0 7.5-3.374 7.5-7.522 0-2.11-1.705-6.17-5.069-12.063a2.805 2.805 0 0 0-2.43-1.415zm3.135 13.478a3.143 3.143 0 0 1-3.135 3.144 3.143 3.143 0 0 1-3.135-3.144c0-.815.991-3.418 3.135-7.433 2.144 4.014 3.135 6.618 3.135 7.433z"/>
    </g>
</svg>
