<svg xmlns="http://www.w3.org/2000/svg" width="177" height="150" viewBox="0 0 177 150">
    <g fill="#79B679" fill-rule="nonzero">
        <path d="M105.36 128.493H91.981c-1.904 0-3.447 1.56-3.447 3.485 0 1.924 1.543 3.484 3.447 3.484h13.379c2.065 0 3.745 1.698 3.745 3.785 0 2.086-1.68 3.784-3.745 3.784H69.346c-5.414 0-10.505-2.412-13.967-6.619l-8.612-10.462c-4.621-5.614-11.347-8.902-18.543-9.11V96.255h12.694c6.26 0 12.189 2.42 16.692 6.814L76.2 121.203c1.314 1.282 1.375 3.428.136 4.785a3.369 3.369 0 0 1-4.778.201l-14.594-13.52a3.422 3.422 0 0 0-4.87.214 3.51 3.51 0 0 0 .211 4.923l14.594 13.52a10.183 10.183 0 0 0 6.943 2.724 10.21 10.21 0 0 0 7.561-3.336c3.761-4.117 3.575-10.633-.414-14.525L62.4 98.055c-5.797-5.655-13.425-8.769-21.482-8.769H27.554C26.257 86.183 23.214 84 19.677 84H3.447C1.545 84 0 85.56 0 87.485v25.48c0 1.925 1.544 3.485 3.448 3.485s3.448-1.56 3.448-3.485V90.97h12.782c.91 0 1.65.748 1.65 1.668v27.93c0 .919-.74 1.668-1.65 1.668h-3.581c-1.904 0-3.448 1.56-3.448 3.484s1.544 3.485 3.448 3.485h3.58c3.585 0 6.66-2.243 7.926-5.413 5.375.031 10.423 2.437 13.863 6.616l8.613 10.462C54.855 146.672 61.877 150 69.346 150h36.014c5.867 0 10.64-4.824 10.64-10.753 0-5.93-4.773-10.754-10.64-10.754zM173.552 32.19c-1.904 0-3.448 1.559-3.448 3.484v23.358h-12.782c-.91 0-1.65-.75-1.65-1.669v-27.93c0-.919.74-1.667 1.65-1.667h3.328c1.904 0 3.448-1.56 3.448-3.485 0-1.924-1.544-3.485-3.448-3.485h-3.328c-3.585 0-6.659 2.243-7.926 5.413-5.375-.031-10.423-2.437-13.863-6.616l-8.612-10.462C122.145 3.328 115.122 0 107.653 0H71.64C65.773 0 61 4.824 61 10.753c0 5.93 4.773 10.753 10.64 10.753h14.726c1.904 0 3.448-1.56 3.448-3.484 0-1.925-1.544-3.485-3.448-3.485H71.64c-2.065 0-3.745-1.697-3.745-3.784 0-2.087 1.68-3.785 3.745-3.785h36.014c5.414 0 10.504 2.413 13.966 6.62l8.613 10.461c4.62 5.615 11.347 8.903 18.543 9.111v20.584h-12.695c-6.26 0-12.188-2.42-16.692-6.813l-18.588-18.134c-1.314-1.282-1.375-3.429-.136-4.785a3.369 3.369 0 0 1 4.778-.202l14.594 13.52a3.422 3.422 0 0 0 4.87-.214 3.51 3.51 0 0 0-.211-4.923l-14.594-13.52c-4.166-3.858-10.672-3.584-14.505.612-3.76 4.118-3.574 10.634.415 14.526L114.6 51.945c5.796 5.655 13.425 8.769 21.481 8.769h13.365c1.297 3.103 4.34 5.286 7.876 5.286h16.23c1.904 0 3.448-1.56 3.448-3.485V35.673c0-1.924-1.544-3.484-3.448-3.484zM111.692 117.056a3.473 3.473 0 0 0-4.6-1.746 3.493 3.493 0 0 0 1.392 6.69c.464 0 .935-.094 1.388-.291l.074-.033a3.499 3.499 0 0 0 1.746-4.62zM121.315 112.418c-1.141-1.554-3.335-1.877-4.886-.739a3.503 3.503 0 0 0-.755 4.89 3.483 3.483 0 0 0 4.878.755 3.488 3.488 0 0 0 .762-4.907z"/>
        <path d="M101.924 120.773a3.487 3.487 0 0 0-4.118-2.7 3.496 3.496 0 0 0-2.743 4.086 3.489 3.489 0 0 0 4.179 2.757 3.493 3.493 0 0 0 2.682-4.143zM127.848 103.898a3.49 3.49 0 0 0-5 .337 3.486 3.486 0 0 0 2.639 5.765c.968 0 1.932-.401 2.62-1.184a3.486 3.486 0 0 0-.26-4.918zm-1.948 2.94l-.388-.35.42.378-.032-.028zM136.516 85.15a3.504 3.504 0 0 0-4.36 2.336 3.486 3.486 0 0 0 2.312 4.359 3.49 3.49 0 0 0 4.366-2.308l.015-.048a3.478 3.478 0 0 0-2.333-4.339zM140.945 67.902a3.494 3.494 0 0 0-4.162-2.827 3.486 3.486 0 0 0-2.714 4.1 3.494 3.494 0 0 0 4.05 2.77 3.485 3.485 0 0 0 2.826-4.043zM137.808 75.014c-1.918-.169-3.622 1.247-3.792 3.162A3.488 3.488 0 0 0 137.501 82a3.493 3.493 0 0 0 3.487-3.228 3.488 3.488 0 0 0-3.18-3.758zM133.23 96.452a3.498 3.498 0 0 0-4.757 1.31l-.048.087A3.482 3.482 0 0 0 131.49 103c1.232 0 2.422-.65 3.052-1.807l-3.034-1.718 3.037 1.714c.95-1.67.361-3.79-1.316-4.737zM69.63 29.935a3.485 3.485 0 0 0-4.681-1.565l-.031.016a3.487 3.487 0 0 0-1.545 4.685A3.491 3.491 0 0 0 66.503 35a3.502 3.502 0 0 0 3.128-5.065zM80.901 27.67a3.477 3.477 0 0 0-4.282-2.55 3.501 3.501 0 0 0-2.509 4.256A3.479 3.479 0 0 0 77.471 32c.287 0 .578-.036.87-.111a3.494 3.494 0 0 0 2.56-4.218zM61.228 34.3a3.489 3.489 0 0 0-4.902-.531l2.162 2.74-2.173-2.732a3.494 3.494 0 0 0-.556 4.906 3.48 3.48 0 0 0 4.901.557l.046-.037a3.49 3.49 0 0 0 .522-4.902zM42.424 59.124a3.496 3.496 0 0 0-4.325 2.574 3.481 3.481 0 0 0 2.573 4.203 3.499 3.499 0 0 0 4.216-2.543 3.483 3.483 0 0 0-2.464-4.234zM40.703 70.006a3.494 3.494 0 0 0-3.701 3.41 3.488 3.488 0 0 0 3.5 3.584 3.495 3.495 0 0 0 3.494-3.358 3.49 3.49 0 0 0-3.293-3.636zM47.13 49.4a3.494 3.494 0 0 0-4.714 1.467l-.057.112a3.48 3.48 0 0 0 1.592 4.662 3.498 3.498 0 0 0 4.666-1.57A3.483 3.483 0 0 0 47.13 49.4zM52.74 40.804a3.49 3.49 0 0 0-4.914.456l-.072.089a3.485 3.485 0 0 0 .569 4.896 3.49 3.49 0 0 0 4.892-.552 3.488 3.488 0 0 0-.475-4.889zM43.944 82.876a3.499 3.499 0 0 0-4.06-2.82 3.492 3.492 0 0 0-2.829 4.05l.007.035A3.478 3.478 0 0 0 40.492 87a3.506 3.506 0 0 0 3.452-4.124zM100.059 56A15.81 15.81 0 0 0 88.5 61.01 15.81 15.81 0 0 0 76.941 56C68.151 56 61 63.236 61 72.13a16.17 16.17 0 0 0 5.806 12.448l19.563 15.672a3.4 3.4 0 0 0 4.27-.007l20.391-16.435c.1-.08.195-.166.286-.257 3.02-3.049 4.684-7.104 4.684-11.42C116 63.235 108.849 56 100.059 56zm6.533 22.505L88.494 93.092l-17.39-13.93a9.21 9.21 0 0 1-3.238-7.031c0-5.064 4.071-9.184 9.075-9.184 3.684 0 6.977 2.227 8.388 5.672a3.433 3.433 0 0 0 3.171 2.144c1.388 0 2.64-.846 3.171-2.144 1.411-3.445 4.704-5.672 8.388-5.672 5.004 0 9.076 4.12 9.076 9.184a9.177 9.177 0 0 1-2.543 6.374z"/>
        <circle cx="3.5" cy="125.5" r="3.5"/>
        <circle cx="173.5" cy="24.5" r="3.5"/>
    </g>
</svg>
