<svg xmlns="http://www.w3.org/2000/svg" width="94" height="150" viewBox="0 0 94 150">
    <g fill="#79B679" fill-rule="nonzero">
        <path d="M76.375 23.65V8.79c0-4.848-3.953-8.79-8.813-8.79H26.438c-4.86 0-8.813 3.942-8.813 8.79v14.86C7.673 25.076 0 33.632 0 43.945v91.407C0 143.429 6.589 150 14.688 150h64.624c8.1 0 14.688-6.571 14.688-14.648V43.945c0-10.313-7.673-18.869-17.625-20.295zM23.5 8.79a2.936 2.936 0 0 1 2.938-2.93h41.124A2.936 2.936 0 0 1 70.5 8.79v14.648h-47V8.789zm-2.938 20.507h52.876c8 0 14.522 6.413 14.68 14.355H5.882c.158-7.942 6.68-14.355 14.68-14.355zm67.563 106.055c0 4.846-3.953 8.789-8.813 8.789H14.689c-4.86 0-8.813-3.943-8.813-8.79v-3.808h82.25v3.809zm0-9.668H5.875V49.512h82.25v76.172z"/>
        <path d="M73 102H55a3 3 0 1 0 0 6h18a3 3 0 1 0 0-6zM20.9 108h23.2c1.602 0 2.9-1.343 2.9-3s-1.298-3-2.9-3H20.9c-1.602 0-2.9 1.343-2.9 3s1.298 3 2.9 3zM53 67h21a3 3 0 1 0 0-6H53a3 3 0 1 0 0 6zM49.9 79h23.2c1.602 0 2.9-1.343 2.9-3s-1.298-3-2.9-3H49.9c-1.602 0-2.9 1.343-2.9 3s1.298 3 2.9 3zM49.857 91h14.286C65.72 91 67 89.657 67 88s-1.279-3-2.857-3H49.857C48.28 85 47 86.343 47 88s1.279 3 2.857 3zM74 114c-1.656 0-3 1.346-3 3s1.344 3 3 3c1.654 0 3-1.346 3-3s-1.346-3-3-3zM20.938 120h41.124c1.62 0 2.938-1.346 2.938-3s-1.318-3-2.938-3H20.938c-1.62 0-2.938 1.346-2.938 3s1.318 3 2.938 3zM30 97c6.616 0 12-5.255 12-11.714V67.714C42 61.255 36.616 56 30 56s-12 5.255-12 11.714v17.572C18 91.745 23.384 97 30 97zm-6-29.286c0-3.23 2.692-5.857 6-5.857s6 2.628 6 5.857v5.857H24v-5.857zm0 11.715h12v5.857c0 3.23-2.692 5.857-6 5.857s-6-2.628-6-5.857v-5.857z"/>
    </g>
</svg>
